<?xml version="1.0" encoding="utf-8"?>
<!-- Generator: Adobe Illustrator 15.0.0, SVG Export Plug-In . SVG Version: 6.00 Build 0)  -->
<!DOCTYPE svg PUBLIC "-//W3C//DTD SVG 1.1//EN" "http://www.w3.org/Graphics/SVG/1.1/DTD/svg11.dtd">
<svg version="1.1" xmlns="http://www.w3.org/2000/svg" xmlns:xlink="http://www.w3.org/1999/xlink" x="0px" y="0px"
	 width="295.333px" height="251.999px" viewBox="0 0 295.333 251.999" enable-background="new 0 0 295.333 251.999"
	 xml:space="preserve">
<g id="Layer_1" display="none">
	<g display="inline">
		<path fill="none" stroke="#765B5B" stroke-width="3" stroke-miterlimit="10" d="M75.882,247.32
			c-11.131-17.618-20.432-31.504-27.907-41.661c11.955-0.996,22.142-2.723,30.561-5.177s15.459-5.235,21.12-8.347
			c7.458-4.098,12.796-8.451,16.014-13.061c3.216-4.609,3.65-9.053,1.298-13.333c-0.799-1.454-1.778-2.726-2.937-3.818
			c-1.158-1.09-2.795-2.141-4.912-3.15c-2.119-1.009-4.833-1.884-8.143-2.629l-35.757-7.763c-8.294-1.682-14.142-2.98-17.549-3.896
			c-6.943-1.867-12.715-3.987-17.315-6.364c-4.6-2.374-8.548-5.19-11.846-8.45c-3.297-3.257-6.145-7.07-8.543-11.435
			c-2.868-5.219-4.76-10.839-5.67-16.858c-0.912-6.018-0.727-12.22,0.556-18.607c1.28-6.387,4.09-12.832,8.427-19.34
			c4.336-6.504,9.653-12.241,15.951-17.206c6.297-4.965,13.125-9.469,20.487-13.514c14.462-7.947,31.128-14.932,49.995-20.954
			c3.502,5.765,6.775,11.015,9.822,15.746c3.046,4.735,8.598,12.909,16.654,24.528c-9.615,1.162-18.015,2.908-25.201,5.24
			c-7.187,2.335-13.135,4.794-17.841,7.38c-6.676,3.668-11.536,7.956-14.579,12.858c-3.044,4.906-3.554,9.197-1.532,12.876
			c0.941,1.713,2.199,3.194,3.778,4.442c1.578,1.251,3.908,2.449,6.991,3.597c3.081,1.148,6.881,2.181,11.396,3.098
			c4.516,0.918,11.478,2.133,20.891,3.646l13.264,2.238c3.961,0.722,8.396,1.796,13.303,3.221c4.906,1.428,9.362,3.045,13.366,4.856
			c4.004,1.812,7.331,3.661,9.984,5.545c2.65,1.887,4.995,3.971,7.028,6.25c2.033,2.283,3.874,4.92,5.52,7.915
			c4.232,7.703,6.425,16.054,6.578,25.05c0.152,9-1.918,17.602-6.209,25.809c-4.293,8.21-9.988,15.435-17.089,21.676
			c-7.101,6.242-15.144,11.832-24.13,16.77C117.84,232.12,99.231,239.727,75.882,247.32z"/>
	</g>
</g>
<g id="Layer_2" display="none">
	<g display="inline">
		<path fill="none" stroke="#765B5B" stroke-width="3" stroke-miterlimit="10" d="M237.722,245.979
			c-23.938-41.268-52.253-85.27-84.951-132.009l-49.523,37.907l-8.953-13.593c-4.787-7.264-10.14-15.144-16.059-23.639
			c22.559-16.118,48.775-35.008,78.651-56.675l29.193-21.354l28.453-20.635l15.322-11.296l7.713,12.131
			c4.202,6.458,7.72,11.764,10.555,15.923s5.004,7.273,6.509,9.349c-17.533,11.39-31.79,21.065-42.769,29.026l-8.293,6.015
			c8.936,14.832,17.377,28.397,25.325,40.695c11.427,17.6,22.696,34.562,33.807,50.887c11.11,16.326,20.245,29.42,27.397,39.282
			c-13.071,9.24-21.504,15.234-25.295,17.983C261.408,228.44,252.38,235.109,237.722,245.979z"/>
	</g>
</g>
<g id="Layer_1_copy_2">
	<g>
		<path fill="none" stroke="#765B5B" stroke-width="3" stroke-miterlimit="10" d="M179.133,160.247
			c0.152,9-1.918,17.602-6.209,25.809c-4.293,8.21-9.988,15.435-17.089,21.676c-7.101,6.242-15.144,11.832-24.13,16.77
			c-13.865,7.619-32.474,15.226-55.823,22.819c-11.131-17.618-20.432-31.504-27.907-41.661c11.955-0.996,22.142-2.723,30.561-5.177
			s15.459-5.235,21.12-8.347c7.458-4.098,12.796-8.451,16.014-13.061c3.216-4.609,3.65-9.053,1.298-13.333
			c-0.799-1.454-1.778-2.726-2.937-3.818c-1.158-1.09-2.795-2.141-4.912-3.15c-2.119-1.009-4.833-1.884-8.143-2.629l-35.757-7.763
			c-8.294-1.682-14.142-2.98-17.549-3.896c-6.943-1.867-12.715-3.987-17.315-6.364c-4.6-2.374-8.548-5.19-11.846-8.45
			c-3.297-3.257-6.145-7.07-8.543-11.435c-2.868-5.219-4.76-10.839-5.67-16.858c-0.912-6.018-0.727-12.22,0.556-18.607
			c1.28-6.387,4.09-12.832,8.427-19.34c4.336-6.504,9.653-12.241,15.951-17.206c6.297-4.965,13.125-9.469,20.487-13.514
			c14.462-7.947,31.128-14.932,49.995-20.954c3.502,5.765,6.775,11.015,9.822,15.746c3.046,4.735,8.598,12.909,16.654,24.528
			c-9.615,1.162-18.015,2.908-25.201,5.24c-7.187,2.335-13.135,4.794-17.841,7.38c-6.676,3.668-11.536,7.956-14.579,12.858
			c-3.044,4.906-3.554,9.197-1.532,12.876c0.941,1.713,2.199,3.194,3.778,4.442c1.578,1.251,3.908,2.449,6.991,3.597
			c3.081,1.148,6.881,2.181,11.396,3.098 M172.555,135.197 M167.036,127.282 M160.008,121.031 M150.024,115.486"/>
	</g>
	<polyline fill="none" stroke="#765B5B" stroke-width="3" stroke-miterlimit="10" points="179.167,163.333 179.167,155.333 
		177.979,151.458 	"/>
	<path fill="none" stroke="#765B5B" stroke-width="3" stroke-miterlimit="10" d="M87.821,101.235"/>
	<line fill="none" stroke="#765B5B" stroke-width="3" stroke-miterlimit="10" x1="94.083" y1="102.75" x2="88.675" y2="101.416"/>
</g>
<g id="Layer_2_copy_2">
	<g>
		<path fill="none" stroke="#765B5B" stroke-width="3" stroke-miterlimit="10" d="M237.722,245.979
			c-23.938-41.268-52.253-85.27-84.951-132.009l-49.523,37.907l-8.953-13.593c-4.787-7.264-10.14-15.144-16.059-23.639
			c22.559-16.118,48.775-35.008,78.651-56.675l29.193-21.354l28.453-20.635l15.322-11.296l7.713,12.131
			c4.202,6.458,7.72,11.764,10.555,15.923s5.004,7.273,6.509,9.349c-17.533,11.39-31.79,21.065-42.769,29.026l-8.293,6.015
			c8.936,14.832,17.377,28.397,25.325,40.695c11.427,17.6,22.696,34.562,33.807,50.887c11.11,16.326,20.245,29.42,27.397,39.282
			c-13.071,9.24-21.504,15.234-25.295,17.983C261.408,228.44,252.38,235.109,237.722,245.979z"/>
	</g>
</g>
<g id="Layer_2_copy" display="none">
	<g display="inline">
		<g>
			<path fill="none" stroke="#765B5B" stroke-width="3" stroke-miterlimit="10" d="M76.749,200.346
				c12.115-3.72,42.714-15.448,35.853-33.506c-3.038-7.995-12.902-10.621-20.369-12.208c-10.25-2.18-20.761-3.009-31.092-4.749
				c-18.134-3.055-37.275-8.116-50.006-22.332C-1.069,113.923-4.837,94.341,0.93,77.05c11.284-33.832,48.525-48.047,78.406-60.436
				c3.898-1.616,8.214-3.922,12.569-3.589c4.942,0.378,6.862,4.884,9.146,8.617c6.322,10.331,13.619,20.029,19.895,30.39
				c-2.75,0.482-5.576,1.05-8.363,0.524c2.505-1.395,5.753-1.986,8.363-0.524c-23.28-0.699-51.28,9.301-60.28,33.301
				c5,14,21,16,33.608,18.825"/>
			<path fill="none" stroke="#765B5B" stroke-width="3" stroke-miterlimit="10" d="M123.333,228.474
				c-10.193,5.269-20.92,9.434-31.809,13.019c-8.032,2.645-23.328,10.305-27.887-1.291"/>
			<path fill="none" stroke="#765B5B" stroke-width="3" stroke-miterlimit="10" d="M144.782,115.485"/>
			<path fill="none" stroke="#765B5B" stroke-width="3" stroke-miterlimit="10" d="M131.417,110.629"/>
		</g>
		<g>
			<path fill="none" stroke="#765B5B" stroke-width="3" stroke-miterlimit="10" d="M237.722,245.979
				c-23.938-41.268-52.253-85.27-84.951-132.009l-49.523,37.907l-8.953-13.593c-4.787-7.264-10.14-15.144-16.059-23.639
				c22.559-16.118,48.775-35.008,78.651-56.675l29.193-21.354l28.453-20.635l15.322-11.296l7.713,12.131
				c4.202,6.458,7.72,11.764,10.555,15.923s5.004,7.273,6.509,9.349c-17.533,11.39-31.79,21.065-42.769,29.026l-8.293,6.015
				c8.936,14.832,17.377,28.397,25.325,40.695c11.427,17.6,22.696,34.562,33.807,50.887c11.11,16.326,20.245,29.42,27.397,39.282
				c-13.071,9.24-21.504,15.234-25.295,17.983C261.408,228.44,252.38,235.109,237.722,245.979z"/>
		</g>
	</g>
	<g id="Layer_1_copy" display="inline">
	</g>
</g>
<g id="Layer_5" display="none">
</g>
</svg>
